HIERARCHY
ROOT Hips
{
  OFFSET 54.5668 96.1152 9.29876
  CHANNELS 6 Xposition Yposition Zposition Zrotation Xrotation Yrotation
  JOINT spine
  {
    OFFSET 0 8.13249 0.467659
    CHANNELS 3 Zrotation Xrotation Yrotation
    JOINT spine1
    {
      OFFSET 0 10.3498 0
      CHANNELS 3 Zrotation Xrotation Yrotation
      JOINT spine2
      {
        OFFSET 0 9.91699 0
        CHANNELS 3 Zrotation Xrotation Yrotation
        JOINT Neck
        {
          OFFSET 0 25.461 1.2139
          CHANNELS 3 Zrotation Xrotation Yrotation
          JOINT Head
          {
            OFFSET 0 7.69245 0
            CHANNELS 3 Zrotation Xrotation Yrotation
            End Site
            {
              OFFSET 0 18.62 -6.14063
            }
          }
        }
        JOINT RightShoulder
        {
          OFFSET -4.17575 10.7096 -0.581445
          CHANNELS 3 Zrotation Xrotation Yrotation
          JOINT RightArm
          {
            OFFSET 0 14.0466 0
            CHANNELS 3 Zrotation Xrotation Yrotation
            JOINT RightArmRoll
            {
              OFFSET 0 7.09099 0
              CHANNELS 3 Zrotation Xrotation Yrotation
              JOINT RightForeArm
              {
                OFFSET 0 20.6535 0
                CHANNELS 3 Zrotation Xrotation Yrotation
                JOINT RightForeArmRoll
                {
                  OFFSET 0 7.95718 0
                  CHANNELS 3 Zrotation Xrotation Yrotation
                  JOINT RightHand
                  {
                    OFFSET 0 15.9683 0
                    CHANNELS 3 Zrotation Xrotation Yrotation
                    End Site
                    {
                      OFFSET 0 0 0
                    }
                  }
                }
              }
            }
          }
        }
        JOINT LeftShoulder
        {
          OFFSET 4.17575 10.7096 -0.581445
          CHANNELS 3 Zrotation Xrotation Yrotation
          JOINT LeftArm
          {
            OFFSET 0 14.0466 0
            CHANNELS 3 Zrotation Xrotation Yrotation
            JOINT LeftArmRoll
            {
              OFFSET 0 7.09098 0
              CHANNELS 3 Zrotation Xrotation Yrotation
              JOINT LeftForeArm
              {
                OFFSET 0 20.6535 0
                CHANNELS 3 Zrotation Xrotation Yrotation
                JOINT LeftForeArmRoll
                {
                  OFFSET 0 7.95718 0
                  CHANNELS 3 Zrotation Xrotation Yrotation
                  JOINT LeftHand
                  {
                    OFFSET 0 15.9683 0
                    CHANNELS 3 Zrotation Xrotation Yrotation
                    End Site
                    {
                      OFFSET 0 0 0
                    }
                  }
                }
              }
            }
          }
        }
      }
    }
  }
  JOINT RightUpLeg
  {
    OFFSET -7.20834 -1.32182 -1.10884
    CHANNELS 3 Zrotation Xrotation Yrotation
    JOINT RightUpLegRoll
    {
      OFFSET 0 18.7238 0
      CHANNELS 3 Zrotation Xrotation Yrotation
      JOINT RightLeg
      {
        OFFSET 0 -23.1866 0
        CHANNELS 3 Zrotation Xrotation Yrotation
        JOINT RightLegRoll
        {
          OFFSET 0 23.2624 0
          CHANNELS 3 Zrotation Xrotation Yrotation
          JOINT RightFoot
          {
            OFFSET 0 19.3621 0
            CHANNELS 3 Zrotation Xrotation Yrotation
            JOINT RightToeBase
            {
              OFFSET 0 16.1857 0
              CHANNELS 3 Zrotation Xrotation Yrotation
              End Site
              {
                OFFSET 0.00686052 7.83863 -0.903521
              }
            }
          }
        }
      }
    }
  }
  JOINT LeftUpLeg
  {
    OFFSET 7.20834 -1.32182 -1.10884
    CHANNELS 3 Zrotation Xrotation Yrotation
    JOINT LeftUpLegRoll
    {
      OFFSET 0 18.7239 0
      CHANNELS 3 Zrotation Xrotation Yrotation
      JOINT LeftLeg
      {
        OFFSET 0 23.1865 0
        CHANNELS 3 Zrotation Xrotation Yrotation
        JOINT LeftLegRoll
        {
          OFFSET 0 23.4775 0
          CHANNELS 3 Zrotation Xrotation Yrotation
          JOINT LeftFoot
          {
            OFFSET 0 19.147 0
            CHANNELS 3 Zrotation Xrotation Yrotation
            JOINT LeftToeBase
            {
              OFFSET 0 16.1857 0
              CHANNELS 3 Zrotation Xrotation Yrotation
              End Site
              {
                OFFSET -0.0307459 7.83863 -0.903522
              }
            }
          }
        }
      }
    }
  }
}
MOTION
Frames: 12
Frame Time: 0.00208333
54.8676 96.1016 7.71256 -1.21348 -3.43242 -0.22144 0.531526 -1.49149 0.0950057 1.05782 1.03836 0.145579 1.05686 2.68326 0.12803 1.20876 12.4854 -9.20946 5.82558 3.41837 -8.58058 61.2014 -9.70864 -6.05456 108.098 18.6395 24.3529 -2.26061e-005 5.72512e-007 1.91758e-006 3.9051 0.748404 -0.546935 -1.16648e-006 -3.44455e-006 -3.00312 8.02975 -4.95139 0.69767 -63.1317 -6.60458 4.28546 -107.935 17.4608 -7.55465 -2.23506e-006 -4.61563e-007 1.45842e-005 -9.64995 0.0703237 1.10456 1.42948e-005 8.86202e-007 3.05673 -8.02901 -4.95145 -0.697681 172.803 1.90134 3.68362 180 7.01558e-015 178.974 178.827 11.275 179.627 1.83056e-006 2.6729e-006 0.126184 -18.5952 69.2152 20.5506 8.13649 25.2327 -3.48774 -171.532 0.811842 -2.84484 4.5067e-006 -1.99009e-005 -0.936352 -1.27583 -13.2353 0.460643 5.55906e-006 2.17578e-006 -0.189811 19.9919 71.7613 -23.072 -8.13669 25.2356 3.48375 
54.8716 96.1007 7.70609 -1.21534 -3.42913 -0.223953 0.531525 -1.49098 0.0948521 1.05895 1.03758 0.144897 1.058 2.68248 0.127327 1.22196 12.4812 -9.21325 5.80751 3.41466 -8.58188 61.211 -9.71007 -6.05548 108.095 18.6337 24.3651 -2.26061e-005 5.72512e-007 1.91758e-006 3.89922 0.744242 -0.546652 -1.16648e-006 -3.44455e-006 -3.00312 8.02975 -4.95139 0.69767 -63.1201 -6.60252 4.28378 -107.943 17.4519 -7.56882 -2.23506e-006 -4.61563e-007 1.45842e-005 -9.6441 0.0703249 1.1074 1.42948e-005 8.86202e-007 3.05673 -8.02901 -4.95145 -0.697681 172.805 1.90473 3.68246 180 7.01558e-015 178.974 178.827 11.2753 179.627 1.83056e-006 2.6729e-006 0.126184 -18.5996 69.2164 20.553 8.13649 25.2327 -3.48774 -171.531 0.815682 -2.84613 4.5067e-006 -1.99009e-005 -0.936352 -1.27546 -13.2383 0.460661 5.55906e-006 2.17578e-006 -0.189803 19.9949 71.7637 -23.0734 -8.13669 25.2356 3.48375 
54.8734 96.1004 7.7093 -1.21719 -3.42578 -0.226461 0.531522 -1.49043 0.094707 1.06014 1.03678 0.144222 1.05918 2.68168 0.126631 1.23469 12.4766 -9.217 5.78978 3.41128 -8.58325 61.22 -9.71159 -6.05646 108.092 18.6276 24.3767 -2.26061e-005 5.72512e-007 1.91758e-006 3.89371 0.740526 -0.546437 -1.16648e-006 -3.44455e-006 -3.00312 8.02975 -4.95139 0.69767 -63.1083 -6.60054 4.28213 -107.951 17.4429 -7.58306 -2.23506e-006 -4.61563e-007 1.45842e-005 -9.63822 0.0703262 1.11025 1.42948e-005 8.86202e-007 3.05673 -8.02901 -4.95145 -0.697681 172.806 1.9082 3.68127 180 7.01558e-015 178.974 178.827 11.2757 179.627 1.83056e-006 2.6729e-006 0.126184 -18.6043 69.2177 20.5556 8.13649 25.2327 -3.48774 -171.529 0.819516 -2.84741 4.5067e-006 -1.99009e-005 -0.936352 -1.27508 -13.2413 0.460685 5.55906e-006 2.17578e-006 -0.18979 19.9978 71.766 -23.0747 -8.13669 25.2356 3.48375 
54.8729 96.1053 7.71427 -1.21903 -3.4224 -0.228966 0.531518 -1.48986 0.0945678 1.06135 1.03597 0.143552 1.06039 2.68087 0.12594 1.24709 12.4717 -9.22071 5.77228 3.40814 -8.58467 61.2287 -9.71317 -6.05747 108.09 18.6214 24.3878 -2.26061e-005 5.72512e-007 1.91758e-006 3.88848 0.737123 -0.546272 -1.16648e-006 -3.44455e-006 -3.00312 8.02975 -4.95139 0.69767 -63.0966 -6.5986 4.28052 -107.96 17.4338 -7.59734 -2.23506e-006 -4.61563e-007 1.45842e-005 -9.63232 0.0703274 1.1131 1.42948e-005 8.86202e-007 3.05673 -8.02901 -4.95145 -0.697681 172.808 1.91171 3.68007 180 7.01558e-015 178.974 178.827 11.2761 179.627 1.83056e-006 2.6729e-006 0.126184 -18.609 69.219 20.5583 8.13649 25.2327 -3.48774 -171.527 0.823346 -2.84871 4.5067e-006 -1.99009e-005 -0.936352 -1.27469 -13.2441 0.460713 5.55906e-006 2.17578e-006 -0.189775 20.0006 71.7683 -23.076 -8.13669 25.2356 3.48375 
54.8704 96.1034 7.71412 -1.22086 -3.419 -0.231468 0.531514 -1.48928 0.0944321 1.06258 1.03515 0.142885 1.06162 2.68005 0.12525 1.2593 12.4668 -9.22441 5.75491 3.40514 -8.58612 61.2372 -9.71479 -6.0585 108.088 18.6151 24.3987 -2.26061e-005 5.72512e-007 1.91758e-006 3.88339 0.733897 -0.546134 -1.16648e-006 -3.44455e-006 -3.00312 8.02975 -4.95139 0.69767 -63.0849 -6.59669 4.27892 -107.968 17.4246 -7.61164 -2.23506e-006 -4.61563e-007 1.45842e-005 -9.62641 0.0703286 1.11596 1.42948e-005 8.86202e-007 3.05673 -8.02901 -4.95145 -0.697681 172.81 1.91525 3.67885 180 7.01558e-015 178.974 178.828 11.2765 179.627 1.83056e-006 2.6729e-006 0.126184 -18.6139 69.2203 20.561 8.13649 25.2327 -3.48774 -171.525 0.827174 -2.85 4.5067e-006 -1.99009e-005 -0.936352 -1.2743 -13.2469 0.460743 5.55906e-006 2.17578e-006 -0.189758 20.0035 71.7705 -23.0772 -8.13669 25.2356 3.48375 
54.8676 96.0992 7.70864 -1.22268 -3.41559 -0.233971 0.531509 -1.48869 0.0942972 1.06382 1.03433 0.142218 1.06286 2.67923 0.124562 1.27146 12.4618 -9.22811 5.73758 3.40216 -8.58758 61.2456 -9.71641 -6.05953 108.086 18.6087 24.4095 -2.26061e-005 5.72512e-007 1.91758e-006 3.87834 0.730717 -0.546003 -1.16648e-006 -3.44455e-006 -3.00312 8.02975 -4.95139 0.69767 -63.0732 -6.59479 4.27732 -107.977 17.4154 -7.62595 -2.23506e-006 -4.61563e-007 1.45842e-005 -9.6205 0.0703299 1.11883 1.42948e-005 8.86202e-007 3.05673 -8.02901 -4.95145 -0.697681 172.812 1.9188 3.67764 180 7.01558e-015 178.974 178.828 11.2769 179.627 1.83056e-006 2.6729e-006 0.126184 -18.6188 69.2216 20.5637 8.13649 25.2327 -3.48774 -171.523 0.831002 -2.8513 4.5067e-006 -1.99009e-005 -0.936352 -1.2739 -13.2497 0.460774 5.55906e-006 2.17578e-006 -0.189741 20.0063 71.7728 -23.0784 -8.13669 25.2356 3.48375 
54.874 96.101 7.71077 -1.22451 -3.41219 -0.236474 0.531505 -1.48811 0.0941607 1.06505 1.03352 0.14155 1.06408 2.67842 0.123872 1.28372 12.4568 -9.23181 5.72018 3.39912 -8.58902 61.2542 -9.71801 -6.06055 108.084 18.6024 24.4204 -2.26061e-005 5.72512e-007 1.91758e-006 3.87322 0.727447 -0.545858 -1.16648e-006 -3.44455e-006 -3.00312 8.02975 -4.95139 0.69767 -63.0615 -6.59287 4.27572 -107.986 17.4063 -7.64024 -2.23506e-006 -4.61563e-007 1.45842e-005 -9.6146 0.0703311 1.12169 1.42948e-005 8.86202e-007 3.05673 -8.02901 -4.95145 -0.697681 172.813 1.92233 3.67643 180 7.01558e-015 178.974 178.828 11.2773 179.627 1.83056e-006 2.6729e-006 0.126184 -18.6236 69.2229 20.5664 8.13649 25.2327 -3.48774 -171.521 0.83483 -2.85259 4.5067e-006 -1.99009e-005 -0.936352 -1.27351 -13.2525 0.460803 5.55906e-006 2.17578e-006 -0.189725 20.0091 71.7751 -23.0796 -8.13669 25.2356 3.48375 
54.8645 96.1006 7.75324 -1.22635 -3.40882 -0.23898 0.531502 -1.48755 0.0940198 1.06625 1.03271 0.140879 1.06529 2.67761 0.123179 1.29621 12.4521 -9.23553 5.70262 3.39592 -8.59043 61.263 -9.71957 -6.06155 108.082 18.5963 24.4317 -2.26061e-005 5.72512e-007 1.91758e-006 3.8679 0.723954 -0.545679 -1.16648e-006 -3.44455e-006 -3.00312 8.02975 -4.95139 0.69767 -63.0498 -6.59092 4.27409 -107.994 17.3972 -7.6545 -2.23506e-006 -4.61563e-007 1.45842e-005 -9.60871 0.0703323 1.12454 1.42948e-005 8.86202e-007 3.05673 -8.02901 -4.95145 -0.697681 172.815 1.92583 3.67523 180 7.01558e-015 178.974 178.828 11.2777 179.627 1.83056e-006 2.6729e-006 0.126184 -18.6283 69.2242 20.5691 8.13649 25.2327 -3.48774 -171.519 0.838661 -2.85389 4.5067e-006 -1.99009e-005 -0.936352 -1.27312 -13.2554 0.46083 5.55906e-006 2.17578e-006 -0.189711 20.012 71.7774 -23.0809 -8.13669 25.2356 3.48375 
54.8636 96.0999 7.74636 -1.2282 -3.4055 -0.241489 0.531499 -1.48701 0.0938722 1.06742 1.03192 0.140202 1.06645 2.67682 0.122481 1.30907 12.4476 -9.23929 5.68478 3.39244 -8.59177 61.2722 -9.72107 -6.06251 108.079 18.5903 24.4434 -2.26061e-005 5.72512e-007 1.91758e-006 3.86229 0.720105 -0.545444 -1.16648e-006 -3.44455e-006 -3.00312 8.02975 -4.95139 0.69767 -63.0381 -6.58891 4.27244 -108.002 17.3882 -7.66871 -2.23506e-006 -4.61563e-007 1.45842e-005 -9.60284 0.0703335 1.12739 1.42948e-005 8.86202e-007 3.05673 -8.02901 -4.95145 -0.697681 172.817 1.92927 3.67405 180 7.01558e-015 178.974 178.828 11.278 179.627 1.83056e-006 2.6729e-006 0.126184 -18.6329 69.2254 20.5717 8.13649 25.2327 -3.48774 -171.518 0.842497 -2.85517 4.5067e-006 -1.99009e-005 -0.936352 -1.27274 -13.2583 0.460852 5.55906e-006 2.17578e-006 -0.189699 20.0149 71.7797 -23.0822 -8.13669 25.2356 3.48375 
54.8715 96.1053 7.7174 -1.23007 -3.40223 -0.244003 0.531498 -1.4865 0.0937151 1.06854 1.03114 0.139517 1.06757 2.67604 0.121776 1.32246 12.4435 -9.24309 5.66657 3.38859 -8.59304 61.282 -9.72246 -6.06342 108.075 18.5845 24.4558 -2.26061e-005 5.72512e-007 1.91758e-006 3.85625 0.715764 -0.545133 -1.16648e-006 -3.44455e-006 -3.00312 8.02975 -4.95139 0.69767 -63.0264 -6.58682 4.27074 -108.011 17.3794 -7.68285 -2.23506e-006 -4.61563e-007 1.45842e-005 -9.597 0.0703347 1.13022 1.42948e-005 8.86202e-007 3.05673 -8.02901 -4.95145 -0.697681 172.819 1.93263 3.6729 180 7.01558e-015 178.974 178.828 11.2783 179.627 1.83056e-006 2.6729e-006 0.126184 -18.6373 69.2266 20.5741 8.13649 25.2327 -3.48774 -171.516 0.846339 -2.85645 4.5067e-006 -1.99009e-005 -0.936352 -1.27238 -13.2615 0.460868 5.55906e-006 2.17578e-006 -0.189693 20.0179 71.7821 -23.0837 -8.13669 25.2356 3.48375 
54.8715 96.1045 7.73062 -1.23196 -3.39903 -0.246524 0.531498 -1.48605 0.0935462 1.0696 1.03039 0.138823 1.06863 2.67529 0.121062 1.33651 12.4398 -9.24696 5.64789 3.38428 -8.5942 61.2925 -9.72374 -6.06427 108.071 18.5791 24.4691 -2.26061e-005 5.72512e-007 1.91758e-006 3.84968 0.710799 -0.544724 -1.16648e-006 -3.44455e-006 -3.00312 8.02975 -4.95139 0.69767 -63.0147 -6.58464 4.26898 -108.019 17.3707 -7.6969 -2.23506e-006 -4.61563e-007 1.45842e-005 -9.5912 0.0703359 1.13304 1.42948e-005 8.86202e-007 3.05673 -8.02901 -4.95145 -0.697681 172.821 1.93589 3.67178 180 7.01558e-015 178.974 178.828 11.2786 179.627 1.83056e-006 2.6729e-006 0.126184 -18.6414 69.2277 20.5763 8.13649 25.2327 -3.48774 -171.514 0.850189 -2.85772 4.5067e-006 -1.99009e-005 -0.936352 -1.27203 -13.2648 0.460877 5.55906e-006 2.17578e-006 -0.189692 20.021 71.7846 -23.0853 -8.13669 25.2356 3.48375 
54.8828 96.1027 7.70782 -1.23388 -3.39593 -0.249053 0.5315 -1.48564 0.0933628 1.07058 1.02967 0.138117 1.06961 2.67456 0.120338 1.35136 12.4367 -9.25089 5.62863 3.37939 -8.59523 61.3039 -9.72487 -6.06503 108.065 18.5741 24.4834 -2.26061e-005 5.72512e-007 1.91758e-006 3.84247 0.705076 -0.544198 -1.16648e-006 -3.44455e-006 -3.00312 8.02975 -4.95139 0.69767 -63.003 -6.58234 4.26716 -108.027 17.3622 -7.71084 -2.23506e-006 -4.61563e-007 1.45842e-005 -9.58544 0.0703371 1.13584 1.42948e-005 8.86202e-007 3.05673 -8.02901 -4.95145 -0.697681 172.822 1.93903 3.6707 180 7.01558e-015 178.974 178.828 11.2788 179.627 1.83056e-006 2.6729e-006 0.126184 -18.6451 69.2288 20.5784 8.13649 25.2327 -3.48774 -171.512 0.854048 -2.85899 4.5067e-006 -1.99009e-005 -0.936352 -1.2717 -13.2683 0.460875 5.55906e-006 2.17578e-006 -0.189698 20.0242 71.7872 -23.087 -8.13669 25.2356 3.48375 
